<svg width="25" height="25" viewBox="0 0 25 25" fill="none" xmlns="http://www.w3.org/2000/svg">
<path d="M16.2108 2.88184H8.14085C6.564 2.88369 5.05228 3.51098 3.93738 4.62607C2.82247 5.74117 2.19544 7.25299 2.19385 8.82984L2.19385 16.8998C2.1957 18.4767 2.82299 19.9884 3.93808 21.1033C5.05318 22.2182 6.565 22.8452 8.14185 22.8468H16.2118C17.7887 22.845 19.3004 22.2177 20.4153 21.1026C21.5302 19.9875 22.1573 18.4757 22.1588 16.8988V8.82884C22.157 7.25199 21.5297 5.74027 20.4146 4.62537C19.2995 3.51046 17.7877 2.88342 16.2108 2.88184V2.88184ZM20.1508 16.8988C20.1508 17.4162 20.0489 17.9286 19.8509 18.4066C19.6529 18.8846 19.3627 19.319 18.9968 19.6848C18.631 20.0507 18.1966 20.3409 17.7186 20.5389C17.2406 20.7369 16.7283 20.8388 16.2108 20.8388H8.14085C7.09607 20.8386 6.09417 20.4233 5.35549 19.6845C4.61682 18.9456 4.20185 17.9436 4.20185 16.8988V8.82884C4.20211 7.78406 4.61734 6.78216 5.3562 6.04348C6.09507 5.3048 7.09707 4.88984 8.14185 4.88984H16.2118C17.2566 4.8901 18.2585 5.30532 18.9972 6.04419C19.7359 6.78305 20.1508 7.78506 20.1508 8.82984V16.8998V16.8988Z" fill="white"/>
<path d="M12.1758 7.70068C10.8072 7.7028 9.49533 8.24747 8.52769 9.21529C7.56006 10.1831 7.01565 11.4951 7.01379 12.8637C7.01538 14.2326 7.55982 15.545 8.52769 16.5131C9.49557 17.4811 10.8079 18.0258 12.1768 18.0277C13.5459 18.0261 14.8584 17.4815 15.8265 16.5134C16.7946 15.5453 17.3392 14.2328 17.3408 12.8637C17.3387 11.4948 16.7937 10.1826 15.8255 9.21488C14.8572 8.24719 13.5447 7.70301 12.1758 7.70168V7.70068ZM12.1758 16.0197C11.339 16.0197 10.5365 15.6873 9.94487 15.0956C9.35319 14.5039 9.02079 13.7014 9.02079 12.8647C9.02079 12.0279 9.35319 11.2254 9.94487 10.6338C10.5365 10.0421 11.339 9.70968 12.1758 9.70968C13.0126 9.70968 13.815 10.0421 14.4067 10.6338C14.9984 11.2254 15.3308 12.0279 15.3308 12.8647C15.3308 13.7014 14.9984 14.5039 14.4067 15.0956C13.815 15.6873 13.0126 16.0197 12.1758 16.0197Z" fill="white"/>
<path d="M17.3498 8.97693C18.033 8.97693 18.5868 8.42311 18.5868 7.73993C18.5868 7.05675 18.033 6.50293 17.3498 6.50293C16.6666 6.50293 16.1128 7.05675 16.1128 7.73993C16.1128 8.42311 16.6666 8.97693 17.3498 8.97693Z" fill="white"/>
</svg>
