<svg width="25" height="25" viewBox="0 0 25 25" fill="none" xmlns="http://www.w3.org/2000/svg">
<path d="M22.1528 14.6007V21.9797H17.8748V15.0947C17.8748 13.3647 17.2558 12.1847 15.7078 12.1847C14.5258 12.1847 13.8218 12.9807 13.5128 13.7497C13.3998 14.0247 13.3708 14.4077 13.3708 14.7927V21.9797H9.09085C9.09085 21.9797 9.14885 10.3197 9.09085 9.11071H13.3708V10.9347L13.3428 10.9767H13.3708V10.9347C13.9388 10.0597 14.9538 8.80871 17.2268 8.80871C20.0418 8.80871 22.1528 10.6487 22.1528 14.6007ZM4.61485 2.90771C3.15185 2.90771 2.19385 3.86771 2.19385 5.13071C2.19385 6.36572 3.12385 7.35471 4.55885 7.35471H4.58685C6.07985 7.35471 7.00685 6.36572 7.00685 5.13071C6.98085 3.86771 6.08085 2.90771 4.61585 2.90771H4.61485ZM2.44785 21.9797H6.72585V9.11071H2.44785V21.9797Z" fill="white"/>
</svg>
