<svg width="25" height="25" viewBox="0 0 25 25" fill="none" xmlns="http://www.w3.org/2000/svg">
<path d="M22.1938 6.789C21.4442 7.11638 20.6503 7.33104 19.8378 7.426C20.6906 6.92523 21.3319 6.13111 21.6418 5.192C20.8338 5.66233 19.9526 5.9936 19.0348 6.172C18.6484 5.76721 18.1835 5.44539 17.6686 5.22618C17.1537 5.00697 16.5995 4.89497 16.0398 4.897C13.7738 4.897 11.9368 6.707 11.9368 8.937C11.9368 9.253 11.9728 9.562 12.0428 9.857C10.4174 9.77969 8.82596 9.36441 7.37002 8.63764C5.91407 7.91087 4.62561 6.88858 3.58685 5.636C3.22267 6.2504 3.03126 6.95178 3.03285 7.666C3.03354 8.33397 3.20068 8.99123 3.51914 9.57839C3.8376 10.1656 4.29735 10.6641 4.85685 11.029C4.20633 11.008 3.56987 10.8343 2.99885 10.522V10.572C2.99885 12.53 4.41385 14.163 6.28885 14.535C5.93646 14.6285 5.57343 14.6759 5.20885 14.676C4.94385 14.676 4.68685 14.651 4.43585 14.601C4.70393 15.4089 5.21695 16.1133 5.90367 16.6163C6.59038 17.1194 7.41669 17.3961 8.26785 17.408C6.80792 18.5325 5.01567 19.14 3.17285 19.135C2.84085 19.135 2.51485 19.115 2.19385 19.079C4.0751 20.2697 6.25644 20.9003 8.48285 20.897C16.0298 20.897 20.1558 14.74 20.1558 9.401L20.1418 8.878C20.9467 8.31167 21.642 7.60385 22.1938 6.789Z" fill="white"/>
</svg>
