<svg width="25" height="25" viewBox="0 0 25 25" fill="none" xmlns="http://www.w3.org/2000/svg">
<path d="M18.0058 5.89895H6.33885C4.04885 5.89895 2.19385 7.73395 2.19385 9.99795V15.7659C2.19385 18.0299 4.04985 19.8659 6.33885 19.8659H18.0058C20.2958 19.8659 22.1508 18.0299 22.1508 15.7659V9.99795C22.1508 7.73395 20.2948 5.89795 18.0058 5.89795V5.89895ZM15.2028 13.1619L9.74585 15.7369C9.71256 15.753 9.67577 15.7603 9.63888 15.7583C9.60199 15.7563 9.56622 15.745 9.53488 15.7254C9.50354 15.7058 9.47766 15.6787 9.45965 15.6464C9.44163 15.6142 9.43207 15.5779 9.43185 15.5409V10.2319C9.43251 10.1948 9.44257 10.1585 9.46107 10.1263C9.47957 10.0941 9.50592 10.0671 9.53767 10.0478C9.56941 10.0286 9.60552 10.0176 9.64262 10.0161C9.67972 10.0145 9.71661 10.0224 9.74985 10.0389L15.2078 12.7739C15.2442 12.7921 15.2747 12.8201 15.2959 12.8548C15.317 12.8895 15.3279 12.9294 15.3274 12.97C15.3269 13.0106 15.3149 13.0503 15.2929 13.0844C15.2709 13.1185 15.2397 13.1458 15.2028 13.1629V13.1619Z" fill="white"/>
</svg>
